<svg xmlns="http://www.w3.org/2000/svg" viewBox="0 0 80 80" fill="none" stroke="#C9A227" stroke-width="1.5" stroke-linecap="round" stroke-linejoin="round">
  <path d="M40 12 C32 8 22 10 18 18 C14 26 16 34 20 40 L16 52 L28 46 C32 50 36 52 40 52 C44 52 48 50 52 46 L64 52 L60 40 C64 34 66 26 62 18 C58 10 48 8 40 12 Z"/>
  <path d="M22 20 L18 8 L28 16"/>
  <path d="M58 20 L62 8 L52 16"/>
  <circle cx="32" cy="36" r="2" fill="#C9A227" stroke="none"/>
  <circle cx="48" cy="36" r="2" fill="#C9A227" stroke="none"/>
  <path d="M36 44 Q40 48 44 44"/>
  <path d="M40 52 L40 58"/>
</svg>
